<svg xmlns="http://www.w3.org/2000/svg" width="24" height="24" viewBox="0 0 24 24" fill="none" stroke="currentColor" stroke-width="1.7" stroke-linecap="round" stroke-linejoin="round" style="color:#4A1677"><path d="M2.5 18 5 12.6A5.6 5.6 0 0 1 10.1 9.4H15a5.5 5.5 0 0 1 5.5 5.5V18z" fill="currentColor" fill-opacity=".18" stroke="none"/><path d="M2.5 18 5 12.6A5.6 5.6 0 0 1 10.1 9.4H15a5.5 5.5 0 0 1 5.5 5.5V18z"/><path d="M9.2 9.4V7c0-.8.7-1.5 1.5-1.5H17"/><path d="M2.5 18h18"/><circle cx="4.3" cy="5.6" r="1.1"/><circle cx="6.6" cy="3.1" r="0.7"/><circle cx="14.5" cy="13.8" r="0.8" fill="currentColor" stroke="none"/></svg>
